<svg width="132" height="41" viewBox="0 0 132 41" fill="none" xmlns="http://www.w3.org/2000/svg">
<path d="M2.87539 15.3388C2.72795 15.3388 2.43306 15.3388 2.28562 15.1934C1.99073 14.9026 1.99073 14.4665 2.28562 14.1757L16.4402 0.218087C16.7351 -0.0726957 17.1774 -0.0726957 17.4723 0.218087C17.7672 0.50887 17.7672 0.945045 17.4723 1.23583L3.31772 15.1934C3.31772 15.3388 3.02284 15.3388 2.87539 15.3388Z" fill="#F05455"/>
<path d="M42.3903 15.3388C42.2429 15.3388 41.948 15.3388 41.8006 15.1934L27.646 1.23583C27.3511 0.945045 27.3511 0.50887 27.646 0.218087C27.9409 -0.0726957 28.3832 -0.0726957 28.6781 0.218087L42.8327 14.0303C43.1275 14.3211 43.1275 14.7572 42.8327 15.048C42.6852 15.3388 42.5378 15.3388 42.3903 15.3388Z" fill="#F05455"/>
<path d="M0.81094 23.3359C0.663496 23.3359 0.368609 23.3359 0.221165 23.1905C-0.0737218 22.8998 -0.0737218 22.4636 0.221165 22.1728L22.0428 0.654855C22.3377 0.364072 22.78 0.364072 23.0749 0.654855L44.8966 22.1728C45.1914 22.4636 45.1914 22.8998 44.8966 23.1905C44.6017 23.4813 44.1593 23.4813 43.8645 23.1905L22.6326 2.10877L1.40071 23.1905C1.25327 23.3359 0.958383 23.3359 0.81094 23.3359Z" fill="#F05455"/>
<path d="M3.02285 27.1148C2.87541 27.1148 2.58052 27.1148 2.43308 26.9694C2.13819 26.6786 2.13819 26.2424 2.43308 25.9516L22.0431 6.61457C22.338 6.32379 22.7803 6.32379 23.0752 6.61457L42.8326 25.9516C43.1275 26.2424 43.1275 26.6786 42.8326 26.9694C42.5377 27.2602 42.0954 27.2602 41.8005 26.9694L22.6328 8.06849L3.61263 26.9694C3.46518 27.1148 3.1703 27.1148 3.02285 27.1148Z" fill="#F05455"/>
<path d="M5.23399 30.8961C5.08654 30.8961 4.79166 30.8961 4.64421 30.7507C4.49677 30.4599 4.49677 30.0237 4.79166 29.7329L22.0426 12.5767C22.3374 12.2859 22.7798 12.2859 23.0747 12.5767L40.473 29.7329C40.7679 30.0237 40.7679 30.4599 40.473 30.7507C40.1781 31.0414 39.7358 31.0414 39.4409 30.7507L22.6323 14.0306L5.82376 30.7507C5.67632 30.8961 5.38143 30.8961 5.23399 30.8961Z" fill="#F05455"/>
<path d="M7.44619 34.6751C7.29875 34.6751 7.00386 34.6751 6.85642 34.5297C6.56153 34.239 6.56153 33.8028 6.85642 33.512L22.0431 18.5367C22.338 18.2459 22.7803 18.2459 23.0752 18.5367L38.2619 33.512C38.5568 33.8028 38.5568 34.239 38.2619 34.5297C37.967 34.8205 37.5247 34.8205 37.2298 34.5297L22.6329 20.136L8.03597 34.5297C7.88852 34.6751 7.59364 34.6751 7.44619 34.6751Z" fill="#F05455"/>
<path d="M9.65762 38.4567C9.51018 38.4567 9.21529 38.4567 9.06785 38.3113C8.77296 38.0205 8.77296 37.5843 9.06785 37.2935L22.0429 24.4991C22.3378 24.2083 22.7801 24.2083 23.075 24.4991L36.05 37.2935C36.3449 37.5843 36.3449 38.0205 36.05 38.3113C35.7551 38.6021 35.3128 38.6021 35.0179 38.3113L22.6327 26.0984L10.2474 38.3113C10.1 38.4567 9.80506 38.4567 9.65762 38.4567Z" fill="#F05455"/>
<path d="M31.921 40.9274C31.7736 40.9274 31.4787 40.9274 31.3313 40.782L22.4847 32.0585L13.638 40.782C13.3431 41.0728 12.9008 41.0728 12.6059 40.782C12.311 40.4912 12.311 40.055 12.6059 39.7642L21.8949 30.6046C22.1898 30.3138 22.6321 30.3138 22.927 30.6046L32.2159 39.7642C32.5108 40.055 32.5108 40.4912 32.2159 40.782C32.3634 40.782 32.2159 40.9274 31.921 40.9274Z" fill="#F05455"/>
<path d="M25.8766 40.9286C25.7291 40.9286 25.4343 40.9286 25.2868 40.7832L22.4854 38.0208L19.8314 40.6378C19.5365 40.9286 19.0942 40.9286 18.7993 40.6378C18.5044 40.347 18.5044 39.9109 18.7993 39.6201L22.043 36.4215C22.3379 36.1307 22.7803 36.1307 23.0752 36.4215L26.3189 39.6201C26.6138 39.9109 26.6138 40.347 26.3189 40.6378C26.3189 40.7832 26.024 40.9286 25.8766 40.9286Z" fill="#F05455"/>
<path d="M58 27.1165H59.6219L61.981 30.7512V27.1165H63.1605V32.4959H61.5386L59.1795 28.7158V32.4959H58V27.1165Z" fill="#202848"/>
<path d="M65.667 29.7331C65.667 29.297 65.667 28.8608 65.8144 28.57C65.9619 28.2792 66.1093 27.9884 66.4042 27.6977C66.6991 27.4069 66.994 27.2615 67.2889 27.1161C67.5838 26.9707 68.0261 26.9707 68.4684 26.9707C68.9108 26.9707 69.2056 26.9707 69.648 27.1161C69.9429 27.2615 70.2377 27.4069 70.5326 27.6977C70.8275 27.9884 70.975 28.2792 71.1224 28.57C71.2699 28.8608 71.2699 29.297 71.2699 29.7331C71.2699 30.1693 71.2699 30.6055 71.1224 30.8963C70.975 31.1871 70.8275 31.4778 70.5326 31.7686C70.2377 32.0594 69.9429 32.2048 69.648 32.3502C69.3531 32.4956 68.9108 32.4956 68.4684 32.4956C68.0261 32.4956 67.7312 32.4956 67.2889 32.3502C66.994 32.2048 66.6991 32.0594 66.4042 31.7686C66.1093 31.4778 65.9619 31.1871 65.8144 30.8963C65.8144 30.6055 65.667 30.1693 65.667 29.7331ZM66.994 29.7331C66.994 30.0239 66.994 30.1693 67.1414 30.4601C67.2889 30.6055 67.2889 30.8963 67.4363 31.0417C67.5838 31.1871 67.7312 31.3324 68.0261 31.3324C68.1735 31.4778 68.4684 31.4778 68.7633 31.4778C69.0582 31.4778 69.2056 31.4778 69.5005 31.3324C69.648 31.1871 69.9429 31.1871 70.0903 31.0417C70.2377 30.8963 70.3852 30.7509 70.3852 30.4601C70.5326 30.3147 70.5326 30.0239 70.5326 29.7331C70.5326 29.4424 70.5326 29.297 70.3852 29.0062C70.2377 28.8608 70.2377 28.57 70.0903 28.4246C69.9429 28.2792 69.7954 28.1338 69.5005 28.1338C69.3531 27.9884 69.0582 27.9884 68.7633 27.9884C68.4684 27.9884 68.321 27.9884 68.0261 28.1338C67.8786 28.2792 67.5838 28.2792 67.4363 28.4246C67.2889 28.57 67.1414 28.7154 67.1414 29.0062C66.994 29.297 66.994 29.4424 66.994 29.7331Z" fill="#202848"/>
<path d="M73.6289 27.1165H74.9559L76.2829 30.6059L77.6099 27.1165H78.9369L76.7252 32.4959H75.8406L73.6289 27.1165Z" fill="#202848"/>
<path d="M82.6233 27.1165H83.6554L86.0145 32.4959H84.6875L84.2451 31.3328H82.1809L81.7386 32.4959H80.4116L82.6233 27.1165ZM83.0656 28.5704L82.4758 30.3151H83.8028L83.0656 28.5704Z" fill="#202848"/>
<path d="M88.6688 28.1342H87.1943V27.1165H91.4702V28.1342H89.9958V32.3505H88.8162V28.1342H88.6688Z" fill="#202848"/>
<path d="M93.8286 27.1165H95.0082V32.4959H93.8286V27.1165Z" fill="#202848"/>
<path d="M97.6621 29.7331C97.6621 29.297 97.6621 28.8608 97.8096 28.57C97.957 28.2792 98.1044 27.9884 98.3993 27.6977C98.6942 27.4069 98.9891 27.2615 99.284 27.1161C99.5789 26.9707 100.021 26.9707 100.464 26.9707C100.906 26.9707 101.201 26.9707 101.643 27.1161C101.938 27.2615 102.233 27.4069 102.528 27.6977C102.823 27.9884 102.97 28.2792 103.118 28.57C103.265 28.8608 103.265 29.297 103.265 29.7331C103.265 30.1693 103.265 30.6055 103.118 30.8963C102.97 31.1871 102.823 31.4778 102.528 31.7686C102.233 32.0594 101.938 32.2048 101.643 32.3502C101.348 32.4956 100.906 32.4956 100.464 32.4956C100.021 32.4956 99.7263 32.4956 99.284 32.3502C98.9891 32.2048 98.6942 32.0594 98.3993 31.7686C98.1044 31.4778 97.957 31.1871 97.8096 30.8963C97.6621 30.6055 97.6621 30.1693 97.6621 29.7331ZM98.8416 29.7331C98.8416 30.0239 98.8416 30.1693 98.9891 30.4601C99.1365 30.6055 99.1365 30.8963 99.284 31.0417C99.4314 31.1871 99.5789 31.3324 99.8738 31.3324C100.021 31.4778 100.316 31.4778 100.611 31.4778C100.906 31.4778 101.053 31.4778 101.348 31.3324C101.496 31.1871 101.791 31.1871 101.938 31.0417C102.085 30.8963 102.233 30.7509 102.233 30.4601C102.38 30.3147 102.38 30.0239 102.38 29.7331C102.38 29.4424 102.38 29.297 102.233 29.0062C102.085 28.8608 102.085 28.57 101.938 28.4246C101.791 28.2792 101.643 28.1338 101.348 28.1338C101.201 27.9884 100.906 27.9884 100.611 27.9884C100.316 27.9884 100.169 27.9884 99.8738 28.1338C99.7263 28.2792 99.4314 28.2792 99.284 28.4246C99.1365 28.57 98.9891 28.7154 98.9891 29.0062C98.8416 29.297 98.8416 29.4424 98.8416 29.7331Z" fill="#202848"/>
<path d="M106.067 27.1165H107.689L110.048 30.7512V27.1165H111.227V32.4959H109.606L107.246 28.7158V32.4959H106.067V27.1165Z" fill="#202848"/>
<path d="M58 19.5546H59.327V15.4837H65.962V8.50488H58V19.5546ZM59.327 9.81341H64.635V14.1752H59.327V9.81341Z" fill="#202848"/>
<path d="M78.7896 15.3383V8.50488H70.8276V19.4092H72.1546V15.1929H75.6933L77.9049 19.4092H79.3794L77.1677 15.1929H78.7896V15.3383ZM72.1546 14.1752V9.81341H77.4626V14.1752H72.1546Z" fill="#202848"/>
<path d="M87.6357 14.0298L84.3919 8.50488H82.9175L87.0459 15.6291V19.5546H88.3729V15.6291L92.5013 8.50488H90.8794L87.6357 14.0298Z" fill="#202848"/>
<path d="M97.9564 8.50488H96.6294V19.5546H103.264V18.2461H97.9564V8.50488Z" fill="#202848"/>
<path d="M107.541 19.5546H108.868V15.1929H114.913V19.5546H116.24V8.50488H107.541V19.5546ZM108.868 9.81341H114.913V13.8844H108.868V9.81341Z" fill="#202848"/>
<path d="M128.035 8.50488H121.105V19.4092H128.035L131.279 13.8844L128.035 8.50488ZM127.298 18.2461H122.58V9.81341H127.298L129.805 14.0298L127.298 18.2461Z" fill="#202848"/>
</svg>
