<svg width="29" height="29" viewBox="0 0 29 29" fill="none" xmlns="http://www.w3.org/2000/svg">
<path d="M14.3747 0.551136C6.51881 0.551136 0.150391 6.91956 0.150391 14.7754C0.150391 22.6312 6.51881 28.9997 14.3747 28.9997C22.2305 28.9997 28.5989 22.6312 28.5989 14.7754C28.5989 6.91956 22.2305 0.551136 14.3747 0.551136ZM23.8015 24.2022C21.2835 26.7202 17.9357 28.1069 14.3747 28.1069C10.8136 28.1069 7.46583 26.7202 4.94783 24.2022C2.42984 21.6842 1.04313 18.3364 1.04313 14.7754C1.04313 11.2144 2.42984 7.86657 4.94783 5.34858C7.46583 2.83059 10.8136 1.44387 14.3747 1.44387C17.9357 1.44387 21.2835 2.83059 23.8015 5.34858C26.3195 7.86657 27.7062 11.2144 27.7062 14.7754C27.7062 18.3364 26.3195 21.6842 23.8015 24.2022Z" fill="#202848"/>
<path d="M20.355 10.5084L18.4302 19.5857C18.285 20.2263 17.9063 20.3857 17.3681 20.084L14.4354 17.9228L13.0204 19.2839C12.8638 19.4405 12.7328 19.5715 12.431 19.5715L12.6417 16.5846L18.0772 11.673C18.3135 11.4623 18.0259 11.3455 17.7098 11.5562L10.9902 15.7873L8.09739 14.8819C7.46814 14.6854 7.45677 14.2526 8.22835 13.9508L19.5435 9.59163C20.0674 9.39518 20.5258 9.70833 20.355 10.5084Z" fill="#202848"/>
</svg>
