<svg width="29" height="29" viewBox="0 0 29 29" fill="none" xmlns="http://www.w3.org/2000/svg">
<path d="M14.6354 0.551025C6.77955 0.551025 0.411133 6.91945 0.411133 14.7753C0.411133 22.6311 6.77955 28.9995 14.6354 28.9995C22.4912 28.9995 28.8597 22.6311 28.8597 14.7753C28.8597 6.91945 22.4912 0.551025 14.6354 0.551025ZM24.0622 24.2021C21.5442 26.7201 18.1964 28.1068 14.6354 28.1068C11.0744 28.1068 7.72657 26.7201 5.20858 24.2021C2.69059 21.6841 1.30387 18.3363 1.30387 14.7753C1.30387 11.2143 2.69059 7.86646 5.20858 5.34847C7.72657 2.83048 11.0744 1.44376 14.6354 1.44376C18.1964 1.44376 21.5442 2.83048 24.0622 5.34847C26.5802 7.86646 27.9669 11.2143 27.9669 14.7753C27.9669 18.3363 26.5802 21.6841 24.0622 24.2021Z" fill="#202848"/>
<path d="M17.3186 9.53493H11.9515C10.1288 9.53493 8.64597 10.9252 8.64597 12.6339V17.6656C8.64597 19.3744 10.1288 20.7645 11.9515 20.7645H17.3186C19.1414 20.7645 20.6242 19.3743 20.6242 17.6656V12.6339C20.6243 10.9252 19.1414 9.53493 17.3186 9.53493ZM19.5615 17.6656C19.5615 18.825 18.5554 19.7682 17.3187 19.7682H11.9515C10.7148 19.7683 9.70874 18.825 9.70874 17.6656V12.6339C9.70874 11.4745 10.7148 10.5313 11.9515 10.5313H17.3186C18.5553 10.5313 19.5615 11.4745 19.5615 12.6339L19.5615 17.6656Z" fill="#202848"/>
<path d="M14.6351 12.2559C12.9332 12.2559 11.5486 13.5539 11.5486 15.1495C11.5486 16.7449 12.9332 18.0429 14.6351 18.0429C16.337 18.0429 17.7216 16.7449 17.7216 15.1495C17.7216 13.5539 16.337 12.2559 14.6351 12.2559ZM14.6351 17.0465C13.5193 17.0465 12.6114 16.1955 12.6114 15.1494C12.6114 14.1032 13.5192 13.2522 14.6351 13.2522C15.751 13.2522 16.6588 14.1032 16.6588 15.1494C16.6588 16.1955 15.7509 17.0465 14.6351 17.0465Z" fill="#202848"/>
<path d="M17.8509 11.4116C17.6462 11.4116 17.445 11.4893 17.3004 11.6255C17.1551 11.761 17.0716 11.9497 17.0716 12.1423C17.0716 12.3343 17.1552 12.5229 17.3004 12.6591C17.4449 12.7946 17.6462 12.8729 17.8509 12.8729C18.0564 12.8729 18.2569 12.7946 18.4021 12.6591C18.5474 12.5229 18.6303 12.3342 18.6303 12.1423C18.6303 11.9497 18.5474 11.761 18.4021 11.6255C18.2576 11.4893 18.0564 11.4116 17.8509 11.4116Z" fill="#202848"/>
</svg>
