<svg width="30" height="29" viewBox="0 0 30 29" fill="none" xmlns="http://www.w3.org/2000/svg">
<path d="M14.8615 0.551136C7.00563 0.551136 0.637207 6.91956 0.637207 14.7754C0.637207 22.6312 7.00563 28.9997 14.8615 28.9997C22.7173 28.9997 29.0857 22.6312 29.0857 14.7754C29.0857 6.91956 22.7173 0.551136 14.8615 0.551136ZM24.2883 24.2022C21.7703 26.7202 18.4225 28.1069 14.8615 28.1069C11.3005 28.1069 7.95264 26.7202 5.43465 24.2022C2.91666 21.6842 1.52994 18.3364 1.52994 14.7754C1.52994 11.2144 2.91666 7.86657 5.43465 5.34858C7.95264 2.83059 11.3005 1.44387 14.8615 1.44387C18.4225 1.44387 21.7703 2.83059 24.2883 5.34858C26.8063 7.86657 28.193 11.2144 28.193 14.7754C28.193 18.3364 26.8063 21.6842 24.2883 24.2022Z" fill="#202848"/>
<path d="M14.5621 10.2836C16.293 10.2836 17.7275 10.3145 19.1534 10.3941C19.5099 10.4117 19.8707 10.4206 20.2142 10.5354C20.9143 10.7784 21.2407 11.3351 21.3953 12.0331C21.5457 12.7178 21.5714 13.4203 21.5843 14.1183C21.6101 15.3553 21.6187 16.5923 21.4727 17.8204C21.4254 18.2268 21.3223 18.6156 21.1377 18.9779C20.8671 19.4992 20.4118 19.7554 19.8621 19.8393C19.2823 19.9233 18.6938 19.9365 18.1054 19.9586C15.7089 20.0514 13.3123 20.0249 10.9158 19.9277C10.5163 19.91 10.1169 19.8835 9.72177 19.7952C9.12478 19.6582 8.69099 19.3269 8.47195 18.7128C8.22714 18.028 8.20137 17.3168 8.16272 16.6055C8.094 15.2448 8.11118 13.8841 8.25291 12.5279C8.29586 12.1303 8.39464 11.7459 8.56644 11.3881C8.87138 10.7475 9.42113 10.4913 10.0782 10.4382C11.6717 10.3101 13.2694 10.2925 14.5621 10.2836ZM13.4541 17.1533C14.7769 16.4067 16.0654 15.6822 17.3839 14.94C17.0403 14.7456 16.7311 14.5689 16.4175 14.3966C15.4898 13.8753 14.5664 13.3496 13.6387 12.8283C13.5657 12.7885 13.4541 12.6737 13.4541 12.8945C13.4541 14.2994 13.4541 15.7043 13.4541 17.1533Z" fill="#202848"/>
</svg>
